<?xml version="1.0" standalone="no"?>
<!DOCTYPE svg PUBLIC "-//W3C//DTD SVG 20010904//EN"
 "http://www.w3.org/TR/2001/REC-SVG-20010904/DTD/svg10.dtd">
<svg version="1.0" xmlns="http://www.w3.org/2000/svg"
 width="600.000000pt" height="585.000000pt" viewBox="0 0 600.000000 585.000000"
 preserveAspectRatio="xMidYMid meet">
<metadata>
Created by potrace 1.10, written by Peter Selinger 2001-2011
</metadata>
<g transform="translate(0.000000,585.000000) scale(0.100000,-0.100000)"
fill="#000000" stroke="none">
<path d="M2775 5570 c-66 -4 -136 -13 -155 -19 -19 -6 -52 -11 -73 -11 -21 0
-48 -5 -59 -11 -11 -6 -44 -15 -72 -19 -28 -4 -66 -13 -83 -19 -84 -28 -100
-33 -133 -41 -49 -12 -123 -40 -135 -51 -5 -5 -17 -9 -26 -9 -10 0 -30 -6 -46
-14 -15 -8 -75 -38 -133 -66 -58 -28 -118 -60 -135 -71 -16 -10 -39 -23 -50
-29 -175 -90 -507 -379 -678 -590 -176 -215 -343 -513 -429 -760 -64 -184
-110 -373 -128 -530 -5 -47 -14 -115 -20 -152 -13 -86 -13 -320 0 -406 6 -37
15 -105 20 -152 58 -497 301 -1016 662 -1411 144 -158 441 -401 573 -469 11
-6 34 -19 50 -29 17 -11 77 -43 135 -71 58 -28 118 -58 133 -66 16 -8 36 -14
46 -14 9 0 21 -4 27 -9 11 -11 85 -39 134 -51 33 -8 49 -13 133 -41 17 -6 55
-15 83 -19 28 -4 61 -13 72 -19 11 -6 37 -11 57 -11 21 0 65 -7 99 -16 90 -25
662 -25 752 0 34 9 78 16 99 16 20 0 46 5 57 11 11 6 44 15 72 19 28 4 66 13
83 19 84 28 100 33 133 41 49 12 123 40 134 51 6 5 18 9 27 9 10 0 30 6 46 14
15 8 75 38 133 66 58 28 119 60 135 71 17 10 39 23 50 29 50 26 213 139 279
194 278 232 456 438 620 716 133 225 220 435 282 685 36 149 46 206 70 396 25
211 10 497 -40 754 -30 157 -101 385 -161 521 -96 218 -227 433 -375 618 -129
161 -347 364 -523 487 -89 62 -124 84 -152 99 -11 6 -33 19 -50 29 -16 11 -77
43 -135 71 -58 28 -118 58 -133 66 -16 8 -36 14 -46 14 -9 0 -21 4 -26 9 -12
11 -86 39 -135 51 -34 8 -55 14 -130 40 -19 7 -58 16 -86 20 -28 4 -61 13 -72
19 -11 6 -38 11 -59 11 -21 0 -62 7 -91 14 -65 18 -453 28 -627 16z m121 -416
c38 -31 92 -75 120 -98 28 -22 82 -66 120 -97 38 -31 78 -66 88 -78 21 -23 46
-28 47 -8 0 6 0 71 -1 144 -1 122 0 132 19 142 28 15 76 14 90 -3 8 -9 11 -83
9 -247 l-3 -234 -53 -3 c-53 -3 -54 -3 -150 75 -53 43 -101 83 -107 89 -5 6
-30 26 -55 44 -25 18 -50 38 -55 44 -30 32 -116 96 -129 96 -13 0 -14 -24 -12
-167 2 -93 -1 -176 -6 -185 -6 -13 -21 -18 -53 -18 -24 0 -47 4 -50 10 -8 13
-8 527 0 540 3 5 30 10 59 10 49 0 57 -4 122 -56z m489 -849 l0 -250 -43 -3
c-72 -5 -73 -2 -71 191 2 191 3 187 -73 187 -75 0 -77 -6 -76 -186 1 -116 -2
-158 -11 -163 -20 -13 -92 -5 -102 10 -5 8 -9 83 -7 167 1 124 -1 155 -13 163
-23 14 -136 11 -152 -5 -11 -12 -13 -48 -11 -183 1 -105 -2 -173 -8 -180 -13
-16 -94 -17 -103 -2 -9 13 -8 485 0 499 4 7 120 9 338 8 l332 -3 0 -250z m3
-560 c4 -226 -1 -267 -41 -312 -17 -20 -46 -42 -64 -49 -42 -18 -125 -18 -166
0 -39 16 -97 85 -97 115 0 30 -21 26 -58 -13 -17 -18 -57 -50 -89 -71 -32 -20
-78 -50 -102 -67 -24 -16 -49 -27 -55 -25 -28 11 -5 177 24 177 15 0 172 110
213 148 31 31 37 42 37 78 0 24 -5 46 -11 49 -6 4 -66 6 -134 6 -136 -2 -136
-2 -140 69 -5 74 -23 71 348 68 l332 -3 3 -170z m-2080 -515 c3 -54 1 -58 -50
-121 -29 -36 -71 -88 -92 -115 -22 -27 -45 -53 -51 -59 -6 -5 -26 -30 -45 -55
-19 -25 -54 -67 -78 -94 -23 -27 -39 -53 -35 -57 5 -5 89 -10 188 -11 l180 -3
0 -55 0 -55 -264 -3 c-186 -2 -268 1 -277 9 -9 7 -14 31 -14 61 0 41 6 57 32
92 18 22 38 46 44 51 6 6 26 30 44 55 18 25 38 50 44 55 6 6 40 46 76 90 35
44 74 91 87 104 45 47 35 51 -120 51 -98 0 -147 4 -155 12 -16 16 -15 81 0 96
9 9 73 12 248 10 l235 -3 3 -55z m617 0 l0 -55 -174 -3 c-108 -1 -180 -7 -188
-13 -17 -15 -17 -113 0 -128 8 -6 76 -12 172 -13 l160 -3 9 -27 c6 -18 6 -38
0 -55 l-9 -28 -160 -3 c-96 -1 -164 -7 -172 -13 -18 -15 -18 -143 0 -158 8 -6
81 -12 193 -13 l179 -3 0 -55 0 -55 -255 0 -255 0 -3 330 c-1 181 0 336 3 343
3 10 59 12 252 10 l248 -3 0 -55z m569 43 c32 -12 58 -31 80 -57 29 -38 31
-45 31 -121 0 -73 -3 -83 -29 -117 -18 -25 -42 -42 -68 -50 -22 -6 -42 -18
-45 -25 -3 -8 11 -28 30 -46 32 -29 107 -129 107 -142 0 -3 14 -24 30 -47 46
-64 43 -69 -47 -66 l-78 3 -81 120 c-83 123 -127 165 -174 165 -48 0 -55 -20
-51 -149 3 -138 0 -144 -81 -139 l-53 3 -3 330 c-1 181 0 336 3 342 3 10 51
13 192 13 153 0 197 -3 237 -17z m1113 -48 c23 -33 42 -64 42 -68 2 -23 98
-131 127 -143 85 -35 98 -16 95 135 -3 138 0 144 81 139 l53 -3 0 -340 0 -340
-185 -3 c-217 -3 -272 8 -321 68 -27 32 -29 40 -29 126 0 90 0 91 35 127 19
19 50 40 70 47 43 14 44 29 5 58 -24 18 -110 133 -110 147 0 2 -13 24 -30 48
-16 25 -30 50 -30 56 0 8 24 11 77 9 l78 -3 42 -60z m1038 -280 l0 -340 -250
0 -250 0 0 55 0 55 174 3 c108 1 180 7 188 13 17 15 17 113 0 128 -8 6 -76 12
-172 13 l-159 3 -8 32 c-5 18 -4 42 2 57 l10 26 164 0 c140 0 165 2 170 16 12
30 6 141 -7 153 -8 6 -81 12 -193 13 l-179 3 -3 44 c-6 76 -21 72 260 69 l253
-3 0 -340z m643 333 c7 -7 12 -35 12 -63 0 -45 -5 -55 -48 -106 -26 -31 -92
-112 -147 -180 -55 -68 -114 -139 -132 -158 -17 -19 -30 -39 -27 -43 3 -4 70
-8 150 -8 144 0 144 0 156 -25 7 -17 8 -35 2 -57 l-10 -33 -239 0 -240 0 -3
58 c-3 54 0 61 30 96 18 21 78 93 133 161 55 68 121 148 148 178 26 31 44 59
39 64 -4 4 -88 9 -187 10 l-180 3 -3 49 c-2 32 1 52 10 57 22 14 522 11 536
-3z m-1896 -738 c2 -5 1 -39 0 -75 l-4 -65 -106 -72 c-59 -39 -122 -87 -140
-107 -28 -31 -32 -42 -30 -81 l3 -45 135 -5 135 -5 3 -54 c2 -30 -1 -58 -7
-64 -13 -13 -650 -12 -663 1 -11 11 -13 340 -3 397 21 111 158 178 262 129 47
-23 93 -71 100 -105 8 -43 20 -44 56 -6 29 32 159 127 173 127 3 0 17 9 31 20
28 22 49 26 55 10z m-13 -714 c8 -9 11 -87 9 -262 l-3 -249 -329 -3 c-186 -1
-334 2 -339 7 -6 6 -12 354 -7 494 0 4 26 7 58 5 l57 -3 0 -170 c0 -93 4 -176
8 -182 5 -8 31 -13 66 -13 35 0 63 5 69 13 6 7 9 69 7 164 -4 140 -3 154 14
163 19 10 86 8 97 -2 3 -4 5 -76 5 -161 -2 -123 1 -156 13 -166 9 -8 41 -11
88 -9 l73 3 3 179 c1 112 7 185 13 193 15 17 83 17 98 -1z m6 -881 l0 -270
-65 0 -65 0 -96 80 c-52 44 -126 105 -164 135 -38 30 -85 70 -106 88 -67 59
-71 52 -66 -107 3 -93 1 -143 -6 -150 -14 -14 -94 -14 -102 -1 -8 14 -8 467 0
480 3 6 27 10 53 10 46 0 53 -5 177 -106 166 -135 209 -170 263 -217 30 -26
48 -35 55 -28 6 6 9 76 8 175 -1 91 1 171 4 176 4 6 30 10 58 8 l52 -3 0 -270z"/>
<path d="M3175 3781 l-60 -6 -3 -103 c-2 -85 0 -106 15 -127 39 -53 94 -54
127 -2 20 30 25 209 7 231 -8 9 -16 15 -20 14 -3 -1 -33 -4 -66 -7z"/>
<path d="M2204 3158 c-5 -7 -9 -37 -9 -68 -2 -81 9 -90 112 -90 90 0 130 13
157 52 23 33 20 56 -13 89 -29 28 -32 29 -135 29 -72 0 -107 -4 -112 -12z"/>
<path d="M3643 2870 c-60 -36 -68 -77 -24 -121 29 -28 32 -29 135 -29 121 0
123 2 121 87 -2 76 -12 83 -114 83 -68 0 -93 -4 -118 -20z"/>
<path d="M2868 2360 c-33 -20 -42 -54 -44 -152 -1 -69 2 -101 11 -108 8 -6 43
-10 82 -8 l68 3 3 110 c2 105 1 112 -21 133 -27 26 -75 36 -99 22z"/>
</g>
</svg>
